#!OML:ASF X:\für Bonn\!DataBase\2005_08_10_Bjorn_Final\c3d\bjorn.ASF
:FULLY-SPECIFIED
:DEGREES
280
root 0.513892 19.0556 0.407822 -183.062 25.2714 183.286
lowerback -6.55959 3.56229 1.70224
upperback 6.45846 5.14673 -2.50081
thorax 11.0056 2.85493 -2.78797
lowerneck 4.12756 -0.627828 9.02958
upperneck 18.1383 1.00452 -2.23657
head 4.82821 1.57261 -2.12039
rclavicle -4.25399e-014 -1.27222e-014
rhumerus -293.119 15.6216 282.334
rradius 42.3574
rwrist 18.5055
rhand -22.8339 10.6546
rfingers 7.12502
rthumb 3.6035 -19.2947
lclavicle -4.25399e-014 -1.27222e-014
lhumerus 40.434 -26.7238 76.986
lradius 66.1211
lwrist 8.78205
lhand -45.2579 -13.7735
lfingers 7.12502
lthumb -18.0318 15.4106
rfemur 4.19147 7.16312 6.77555
rtibia 34.0836
rfoot 8.55341 23.524
rtoes -16.5074
lfemur -10.3497 1.65483 -9.50853
ltibia 31.2246
lfoot -9.4682 -11.703
ltoes -4.68338
281
root 0.544599 19.0408 0.438925 -183.165 25.2475 183.242
lowerback -6.58233 3.5777 1.66878
upperback 6.53173 5.18183 -2.50863
thorax 11.1025 2.8739 -2.76766
lowerneck 3.9006 -0.623658 9.19072
upperneck 18.2286 0.990417 -2.30745
head 4.89393 1.57117 -2.16915
rclavicle -7.45443e-014 -7.95139e-015
rhumerus -295.209 16.0077 282.813
rradius 44.7328
rwrist 17.1361
rhand -22.6691 10.6798
rfingers 7.12502
rthumb 3.7626 -19.2667
lclavicle -7.45443e-014 -7.95139e-015
lhumerus 38.8585 -27.6615 76.2764
lradius 67.1211
lwrist 7.57419
lhand -45.1897 -13.9562
lfingers 7.12502
lthumb -17.9662 15.234
rfemur 4.35963 7.13757 6.80156
rtibia 33.9008
rfoot 8.32564 23.9291
rtoes -15.994
lfemur -10.4694 1.54133 -9.4239
ltibia 31.4946
lfoot -9.51302 -11.642
ltoes -4.94305
282
root 0.576647 19.025 0.47163 -183.247 25.2388 183.207
lowerback -6.62821 3.60383 1.64375
upperback 6.60271 5.22936 -2.51203
thorax 11.2122 2.89886 -2.7437
lowerneck 3.73283 -0.622456 9.33959
upperneck 18.2617 0.974818 -2.37641
head 4.93203 1.56613 -2.21559
rclavicle 3.77691e-014 -8.5875e-014
rhumerus -297.419 16.4335 283.188
rradius 47.0779
rwrist 15.7409
rhand -22.4521 10.811
rfingers 7.12502
rthumb 3.97219 -19.1317
lclavicle 3.77691e-014 -8.5875e-014
lhumerus 37.2639 -28.6406 75.624
lradius 67.9958
lwrist 6.41729
lhand -45.1872 -14.1286
lfingers 7.12502
lthumb -17.9638 15.0617
rfemur 4.50855 7.0759 6.82572
rtibia 33.7082
rfoot 8.14919 24.3163
rtoes -15.395
lfemur -10.6153 1.45631 -9.32153
ltibia 31.7808
lfoot -9.55822 -11.5943
ltoes -5.19328
283
root 0.608445 19.0098 0.504481 -183.305 25.2287 183.193
lowerback -6.67944 3.64326 1.6692
upperback 6.65993 5.29105 -2.54082
thorax 11.3189 2.9357 -2.77274
lowerneck 3.51087 -0.633706 9.59495
upperneck 18.3526 0.946201 -2.49405
head 4.997 1.56192 -2.29533
rclavicle 9.14409e-015 -4.45278e-014
rhumerus -299.785 16.8624 283.458
rradius 49.3553
rwrist 14.8462
rhand -22.4028 10.8479
rfingers 7.12502
rthumb 4.01978 -19.0939
lclavicle 9.14409e-015 -4.45278e-014
lhumerus 35.5449 -29.6952 75.0633
lradius 68.7561
lwrist 4.94391
lhand -45.2717 -14.1233
lfingers 7.12502
lthumb -18.045 15.0597
rfemur 4.65352 7.05246 6.89048
rtibia 33.5008
rfoot 7.96824 24.6472
rtoes -14.5539
lfemur -10.7813 1.3595 -9.19949
ltibia 32.0809
lfoot -9.62537 -11.5121
ltoes -5.55378
284
root 0.641427 18.9939 0.538812 -183.346 25.2184 183.178
lowerback -6.75945 3.68708 1.69711
upperback 6.72275 5.359 -2.57108
thorax 11.4507 2.97597 -2.80145
lowerneck 3.31336 -0.637245 9.8278
upperneck 18.3883 0.921666 -2.59228
head 5.041 1.55589 -2.36528
rclavicle 5.70512e-014 -3.33958e-014
rhumerus -302.259 17.3034 283.581
rradius 51.6533
rwrist 14.104
rhand -22.1649 10.8031
rfingers 7.12502
rthumb 4.24951 -19.1342
lclavicle 5.70512e-014 -3.33958e-014
lhumerus 33.7232 -30.7718 74.5894
lradius 69.4152
lwrist 3.1954
lhand -45.4146 -14.0051
lfingers 7.12502
lthumb -18.1826 15.165
rfemur 4.78554 6.99161 6.95082
rtibia 33.283
rfoot 7.76283 25.0009
rtoes -13.8408
lfemur -10.9812 1.20817 -9.08069
ltibia 32.3959
lfoot -9.68884 -11.3695
ltoes -5.912
285
root 0.673892 18.978 0.574276 -183.373 25.1994 183.159
lowerback -6.84823 3.72717 1.70845
upperback 6.78746 5.42074 -2.57928
thorax 11.5856 3.0103 -2.79742
lowerneck 3.14161 -0.632388 10.0713
upperneck 18.3523 0.913613 -2.77602
head 5.05911 1.54832 -2.46368
rclavicle 2.50469e-014 1.74931e-014
rhumerus -304.814 17.8004 283.68
rradius 53.9676
rwrist 13.2942
rhand -21.8434 10.6495
rfingers 7.12502
rthumb 4.55996 -19.2814
lclavicle 2.50469e-014 1.74931e-014
lhumerus 31.7791 -31.8752 74.2081
lradius 70.0891
lwrist 1.72115
lhand -45.5311 -13.9826
lfingers 7.12502
lthumb -18.2946 15.1771
rfemur 4.91174 6.96608 7.02166
rtibia 33.0564
rfoot 7.55335 25.3341
rtoes -13.0553
lfemur -11.2033 1.02485 -8.97137
ltibia 32.7188
lfoot -9.79357 -11.1928
ltoes -6.42132
286
root 0.706901 18.9623 0.610225 -183.396 25.2041 183.142
lowerback -6.94069 3.75645 1.71829
upperback 6.8532 5.46549 -2.5719
thorax 11.7208 3.03507 -2.77832
lowerneck 2.99713 -0.608896 10.2503
upperneck 18.3193 0.934797 -2.95015
head 5.07498 1.55198 -2.54754
rclavicle -2.84262e-014 -1.90833e-014
rhumerus -307.429 18.4142 283.694
rradius 56.2087
rwrist 12.5049
rhand -21.5669 10.4113
rfingers 7.12502
rthumb 4.82694 -19.5137
lclavicle -2.84262e-014 -1.90833e-014
lhumerus 29.7338 -32.9927 73.8655
lradius 70.6522
lwrist 0.53209
lhand -45.5228 -14.2729
lfingers 7.12502
lthumb -18.2866 14.8875
rfemur 5.03809 6.94883 7.10225
rtibia 32.8204
rfoot 7.32548 25.6502
rtoes -12.4202
lfemur -11.4229 0.828842 -8.85734
ltibia 33.0419
lfoot -9.90239 -10.9657
ltoes -7.05003
287
root 0.739852 18.9459 0.647973 -183.445 25.1864 183.126
lowerback -7.00697 3.77385 1.73258
upperback 6.94607 5.49603 -2.554
thorax 11.8694 3.05439 -2.75341
lowerneck 2.78868 -0.56706 10.4012
upperneck 18.3022 0.968068 -3.11017
head 5.1072 1.55889 -2.62187
rclavicle 3.04141e-014 3.18055e-015
rhumerus -310.067 19.0648 283.676
rradius 58.3599
rwrist 11.6014
rhand -21.2521 10.1752
rfingers 7.12502
rthumb 5.13094 -19.7426
lclavicle 3.04141e-014 3.18055e-015
lhumerus 27.6448 -34.1843 73.5437
lradius 71.0098
lwrist -0.57358
lhand -45.4217 -14.9079
lfingers 7.12502
lthumb -18.1894 14.2616
rfemur 5.1966 6.89191 7.18216
rtibia 32.5789
rfoot 7.04656 26.0192
rtoes -11.8575
lfemur -11.6252 0.598499 -8.74154
ltibia 33.3653
lfoot -10.0062 -10.748
ltoes -7.52178
288
root 0.772875 18.93 0.686558 -183.503 25.184 183.106
lowerback -7.05863 3.77346 1.71185
upperback 7.04848 5.4999 -2.48288
thorax 12.0081 3.05443 -2.65685
lowerneck 2.56935 -0.489909 10.3987
upperneck 18.3037 1.04909 -3.25816
head 5.14897 1.57958 -2.66541
rclavicle -2.76311e-014 8.74653e-014
rhumerus -312.744 19.8483 283.639
rradius 60.3819
rwrist 10.7343
rhand -20.9118 9.98972
rfingers 7.12502
rthumb 5.45954 -19.92
lclavicle -2.76311e-014 8.74653e-014
lhumerus 25.4643 -35.3436 73.3592
lradius 71.1214
lwrist -1.73349
lhand -45.5503 -15.7282
lfingers 7.12502
lthumb -18.3131 13.4298
rfemur 5.36425 6.85482 7.26552
rtibia 32.333
rfoot 6.78765 26.3745
rtoes -11.2707
lfemur -11.8141 0.288277 -8.636
ltibia 33.6914
lfoot -10.1285 -10.4268
ltoes -8.11338
289
root 0.806781 18.9124 0.727318 -183.584 25.1634 183.077
lowerback -7.07772 3.74542 1.67517
upperback 7.15863 5.46774 -2.3989
thorax 12.13 3.0355 -2.54591
lowerneck 2.3463 -0.382819 10.3385
upperneck 18.3066 1.17158 -3.40637
head 5.19435 1.61599 -2.69785
rclavicle -3.3197e-014 -4.6118e-014
rhumerus -315.429 20.6984 283.53
rradius 62.228
rwrist 9.93204
rhand -20.5483 9.91457
rfingers 7.12502
rthumb 5.81049 -19.9858
lclavicle -3.3197e-014 -4.6118e-014
lhumerus 23.1409 -36.4598 73.3845
lradius 70.9915
lwrist -2.77102
lhand -45.9728 -16.6669
lfingers 7.12502
lthumb -18.7196 12.4524
rfemur 5.56109 6.77309 7.34194
rtibia 32.0952
rfoot 6.47484 26.7506
rtoes -10.9184
lfemur -11.9999 -0.0154715 -8.53639
ltibia 34.0261
lfoot -10.2242 -10.1163
ltoes -8.60256
290
root 0.840764 18.8935 0.769797 -183.654 25.166 183.066
lowerback -7.07902 3.72668 1.66962
upperback 7.26104 5.44216 -2.3055
thorax 12.2351 3.02136 -2.44224
lowerneck 2.15572 -0.277262 10.2265
upperneck 18.2984 1.29698 -3.54075
head 5.2307 1.65158 -2.71706
rclavicle 8.34896e-015 3.33958e-014
rhumerus -318.173 21.5566 283.317
rradius 63.8578
rwrist 9.32793
rhand -20.2362 9.90977
rfingers 7.12502
rthumb 6.11183 -19.9821
lclavicle 8.34896e-015 3.33958e-014
lhumerus 20.6921 -37.5556 73.6034
lradius 70.62
lwrist -3.69245
lhand -46.5908 -17.617
lfingers 7.12502
lthumb -19.3139 11.4439
rfemur 5.73896 6.70904 7.44525
rtibia 31.8768
rfoot 6.12142 27.103
rtoes -10.5541
lfemur -12.1888 -0.299931 -8.41055
ltibia 34.3681
lfoot -10.3504 -9.83038
ltoes -9.15724
291
root 0.875301 18.8732 0.815405 -183.729 25.1451 183.067
lowerback -7.05659 3.70555 1.68212
upperback 7.37829 5.41453 -2.21679
thorax 12.3454 3.00936 -2.35485
lowerneck 1.90785 -0.173128 10.1375
upperneck 18.3344 1.41605 -3.67155
head 5.29043 1.68694 -2.73884
rclavicle -1.94809e-014 -3.97569e-014
rhumerus -320.94 22.3635 282.999
rradius 65.31
rwrist 8.93587
rhand -19.896 9.94612
rfingers 7.12502
rthumb 6.44021 -19.936
lclavicle -1.94809e-014 -3.97569e-014
lhumerus 18.1287 -38.5638 74.092
lradius 70.0566
lwrist -4.62906
lhand -46.9678 -18.351
lfingers 7.12502
lthumb -19.6763 10.6732
rfemur 5.92305 6.6507 7.5797
rtibia 31.682
rfoot 5.72142 27.4301
rtoes -10.0102
lfemur -12.3989 -0.543959 -8.26536
ltibia 34.731
lfoot -10.4653 -9.57733
ltoes -9.94396
292
root 0.909902 18.8528 0.862679 -183.801 25.1326 183.053
lowerback -7.00467 3.68697 1.70174
upperback 7.47608 5.3897 -2.14224
thorax 12.418 2.99969 -2.28889
lowerneck 1.69857 -0.062356 10.0672
upperneck 18.3442 1.55162 -3.82008
head 5.33711 1.73011 -2.76851
rclavicle 1.27222e-014 -2.3059e-014
rhumerus -323.812 23.1275 282.477
rradius 66.5844
rwrist 8.76533
rhand -19.5374 9.95965
rfingers 7.12502
rthumb 6.78636 -19.9116
lclavicle 1.27222e-014 -2.3059e-014
lhumerus 15.4029 -39.4391 74.8239
lradius 69.3442
lwrist -5.64831
lhand -47.2182 -18.9003
lfingers 7.12502
lthumb -19.917 10.0991
rfemur 6.076 6.54196 7.69024
rtibia 31.524
rfoot 5.12487 27.8177
rtoes -9.81226
lfemur -12.626 -0.804199 -8.12919
ltibia 35.1064
lfoot -10.5662 -9.31728
ltoes -10.4576
